<?xml version="1.0" ?><!DOCTYPE svg  PUBLIC '-//W3C//DTD SVG 1.1//EN'  'http://www.w3.org/Graphics/SVG/1.1/DTD/svg11.dtd'><svg xmlns="http://www.w3.org/2000/svg" xmlns:xlink="http://www.w3.org/1999/xlink" xmlns:serif="http://www.serif.com/" width="100%" height="100%" viewBox="0 0 64 64" version="1.1" xml:space="preserve" style="fill-rule:evenodd;clip-rule:evenodd;stroke-linejoin:round;stroke-miterlimit:2;"><path d="M54.089,32C53.777,32.002 52.154,32.325 52.163,34C52.174,36.007 53.777,35.998 54.089,36L54.093,36L57.105,36C57.74,36 58.349,36.252 58.798,36.702C59.248,37.151 59.5,37.76 59.5,38.395L59.5,38.605C59.5,39.24 59.248,39.849 58.798,40.298C58.349,40.748 57.74,41 57.105,41L54.108,41L54.089,41C53.777,41.002 52.154,41.259 52.163,43C52.172,44.773 53.777,44.998 54.089,45L54.093,45L57.105,45C57.74,45 58.349,45.252 58.798,45.702C59.248,46.151 59.5,46.76 59.5,47.395L59.5,47.605C59.5,48.24 59.248,48.849 58.798,49.298C58.349,49.748 57.74,50 57.105,50L54.093,50L54.089,50C53.777,50.002 52.168,50.167 52.163,52C52.158,53.838 53.777,53.998 54.089,54L54.093,54L57.105,54C57.74,54 58.349,54.252 58.798,54.702C59.248,55.151 59.5,55.76 59.5,56.395L59.5,56.605C59.5,57.24 59.248,57.849 58.798,58.298C58.349,58.748 57.74,59 57.105,59C57.105,59 29.5,59 29.5,59C28.554,59 27.625,58.743 26.814,58.256L22.744,55.814C21.311,54.954 19.671,54.5 18,54.5C17.003,54.5 16,55 16,56.5C16,57.604 16.896,58.5 18,58.5L18,58.5C18.946,58.5 19.875,58.757 20.686,59.244L24.756,61.686C26.189,62.546 27.829,63 29.5,63L57.105,63C58.801,63 60.428,62.326 61.627,61.127C62.826,59.928 63.5,58.301 63.5,56.605L63.5,56.395C63.5,54.758 62.872,53.186 61.75,52C62.872,50.814 63.5,49.242 63.5,47.605L63.5,47.395C63.5,45.758 62.872,44.186 61.75,43C62.872,41.814 63.5,40.242 63.5,38.605L63.5,38.395C63.5,36.758 62.872,35.186 61.75,34C62.872,32.814 63.5,31.242 63.5,29.605L63.5,29.395C63.5,27.699 62.826,26.072 61.627,24.873C60.428,23.674 58.801,23 57.105,23L44.615,23C44.054,23 43.516,22.777 43.12,22.38C42.723,21.984 42.5,21.446 42.5,20.885L42.5,7.395C42.5,5.699 41.826,4.072 40.627,2.873C39.428,1.674 37.801,1 36.105,1L35.895,1C34.199,1 32.572,1.674 31.373,2.873C30.174,4.072 29.5,5.699 29.5,7.395L29.5,13.556C29.5,19.965 26.159,25.91 20.685,29.242C20.685,29.242 20.668,29.252 20.668,29.252C19.864,29.741 18.941,30 18,30C17.003,30 16,31 16,32C16,33.104 16.896,34 18,34C18,34 18,34 18,34C19.675,34 21.318,33.539 22.748,32.669L22.764,32.659C29.431,28.601 33.5,21.361 33.5,13.556L33.5,7.395C33.5,6.76 33.752,6.151 34.202,5.702C34.651,5.252 35.26,5 35.895,5L36.105,5C36.74,5 37.349,5.252 37.798,5.702C38.248,6.151 38.5,6.76 38.5,7.395L38.5,20.885C38.5,22.506 39.144,24.062 40.291,25.209C41.438,26.356 42.994,27 44.615,27L57.105,27C57.74,27 58.349,27.252 58.798,27.702C59.248,28.151 59.5,28.76 59.5,29.395L59.5,29.605C59.5,30.24 59.248,30.849 58.798,31.298C58.349,31.748 57.74,32 57.105,32L54.093,32L54.089,32ZM15,29C15,27.895 14.105,27 13,27L3,27C1.895,27 1,27.895 1,29L1,59C1,60.105 1.895,61 3,61L13,61C14.105,61 15,60.105 15,59L15,29ZM11,31L11,57C11,57 5,57 5,57C5,57 5,31 5,31L11,31Z"/></svg>