<?xml version="1.0" ?><!DOCTYPE svg  PUBLIC '-//W3C//DTD SVG 1.1//EN'  'http://www.w3.org/Graphics/SVG/1.1/DTD/svg11.dtd'><svg xmlns="http://www.w3.org/2000/svg" xmlns:xlink="http://www.w3.org/1999/xlink" xmlns:serif="http://www.serif.com/" width="100%" height="100%" viewBox="0 0 64 64" version="1.1" xml:space="preserve" style="fill-rule:evenodd;clip-rule:evenodd;stroke-linejoin:round;stroke-miterlimit:2;"><g><g transform="matrix(1.52941,0,0,1.2381,-24.5882,-14.5238)"><path d="M37,17.385C26.896,17.385 18.692,27.518 18.692,40C18.692,52.482 26.896,62.615 37,62.615C47.104,62.615 55.308,52.482 55.308,40C55.308,27.518 47.104,17.385 37,17.385ZM37,20.615C45.661,20.615 52.692,29.301 52.692,40C52.692,50.699 45.661,59.385 37,59.385C28.339,59.385 21.308,50.699 21.308,40C21.308,29.301 28.339,20.615 37,20.615Z"/></g><g transform="matrix(0.628539,0.628539,-0.606092,0.606092,47.5836,-30.1142)"><path d="M48.25,27.489C48.25,25.679 47.557,23.944 46.323,22.665C45.09,21.385 43.416,20.667 41.672,20.667C38.842,20.667 35.158,20.667 32.328,20.667C30.584,20.667 28.91,21.385 27.677,22.665C26.443,23.944 25.75,25.679 25.75,27.489C25.75,28.854 25.75,30 25.75,30C25.75,31.289 26.757,32.333 28,32.333L46,32.333C47.243,32.333 48.25,31.289 48.25,30L48.25,27.489ZM43.75,27.489L43.75,27.667C43.75,27.667 30.25,27.667 30.25,27.667L30.25,27.489C30.25,26.917 30.469,26.369 30.859,25.965C31.248,25.56 31.777,25.333 32.328,25.333L41.672,25.333C42.223,25.333 42.752,25.56 43.141,25.965C43.531,26.369 43.75,26.917 43.75,27.489Z"/></g><g transform="matrix(-0.628539,0.628539,0.606092,0.606092,16.3791,-30.1328)"><path d="M48.25,27.489C48.25,25.679 47.557,23.944 46.323,22.665C45.09,21.385 43.416,20.667 41.672,20.667C38.842,20.667 35.158,20.667 32.328,20.667C30.584,20.667 28.91,21.385 27.677,22.665C26.443,23.944 25.75,25.679 25.75,27.489C25.75,28.854 25.75,30 25.75,30C25.75,31.289 26.757,32.333 28,32.333L46,32.333C47.243,32.333 48.25,31.289 48.25,30L48.25,27.489ZM43.75,27.489L43.75,27.667C43.75,27.667 30.25,27.667 30.25,27.667L30.25,27.489C30.25,26.917 30.469,26.369 30.859,25.965C31.248,25.56 31.777,25.333 32.328,25.333L41.672,25.333C42.223,25.333 42.752,25.56 43.141,25.965C43.531,26.369 43.75,26.917 43.75,27.489Z"/></g><path d="M30,34.24L22.505,42.671C21.772,43.496 21.846,44.761 22.671,45.495C23.496,46.228 24.761,46.154 25.495,45.329L33.495,36.329C33.661,36.142 33.786,35.932 33.87,35.711C33.954,35.49 34,35.25 34,35L34,18C34,16.896 33.104,16 32,16C30.896,16 30,16.896 30,18L30,34.24Z"/></g></svg>